<?xml version="1.0" encoding="utf-8"?>
<!-- Generator: Adobe Illustrator 27.8.0, SVG Export Plug-In . SVG Version: 6.00 Build 0)  -->
<svg version="1.1" id="Layer_1" xmlns="http://www.w3.org/2000/svg" xmlns:xlink="http://www.w3.org/1999/xlink" x="0px" y="0px"
	 viewBox="0 0 496.8 280.8" style="enable-background:new 0 0 496.8 280.8;" xml:space="preserve">
<style type="text/css">
	.st0{fill:none;}
	
		.st1{clip-path:url(#SVGID_00000034049513773966873850000012559598941543874230_);fill:none;stroke:#00118C;stroke-width:8;stroke-linecap:square;stroke-linejoin:round;}
	
		.st2{clip-path:url(#SVGID_00000047746786978393772780000015383127400699862183_);fill:none;stroke:#B70000;stroke-width:8;stroke-linecap:square;stroke-linejoin:round;}
	.st3{fill:#FFFFFF;stroke:#FFFFFF;stroke-width:8;stroke-miterlimit:10;}
	.st4{fill:#242062;}
	.st5{fill:#176A36;}
	.st6{fill:#D3AD2A;}
	.st7{fill:#D24427;}
	.st8{fill:#D22026;}
</style>
<g id="figure_1">
	<g id="patch_1">
		<path class="st0" d="M0,280.8h496.8V0H0V280.8z"/>
	</g>
	<g id="axes_1">
		<g id="line2d_1">
			<g>
				<g>
					<defs>
						<rect id="SVGID_1_" x="7.2" y="7.2" width="482.4" height="266.4"/>
					</defs>
					<clipPath id="SVGID_00000067214003042191537020000015507055381239941270_">
						<use xlink:href="#SVGID_1_"  style="overflow:visible;"/>
					</clipPath>
					
						<path style="clip-path:url(#SVGID_00000067214003042191537020000015507055381239941270_);fill:none;stroke:#00118C;stroke-width:8;stroke-linecap:square;stroke-linejoin:round;" d="
						M29.1,261.2l0.4-2.4L30,258l0.4-10.8l0.4,0.5l0.4,2.4l0.4,3.2l0.4-3.5l0.4,4.1l0.4-12.4l0.4,10.1l0.4-8.5l0.4,15.5l0.4-3l0.4,1
						l0.4-15.3l0.4,9.9l0.4,6.3l0.9-11.7l0.4,13.7l0.4-17l0.4,10.8l0.4,0.8l0.4-5.7l0.9,8.3l0.4-3.8l0.4,6.2l0.4-9.5l0.4,7.5
						l0.4-4.4l0.4-0.6l0.4-2.6l0.4-7.1l0.4,13l0.4-3.4l0.4,8l0.4-7.3l0.4,2.8l0.4-2.5l0.4-6.4l0.4,4.4l0.4-9l0.4,4.6l0.4,12.7
						l0.4-16l0.4,16.5l0.4,0.1l0.4-3.6l0.4-14.2l0.4,11.5l0.4-10.3l0.4,11.4l0.4,2.2l0.4-11.3l0.4,16l0.4-11.2l0.4,6L53,249l0.4-9.3
						l0.4,19.2l0.4-5.2l0.9-13.7l0.4,6.7l0.4,1.8l0.4,4.6l0.4-11l0.4,14l0.4-4.8l0.4-8.3l0.4,18.3l0.4-16.2l0.4,15.8l0.9-10.1
						l0.9,0.4l0.4-6.5l0.4,4.3l0.4-5.7l0.4,8l0.4-0.4L66,251l0.4,5l0.4-3.4l0.4,4.8l0.4,1.5L68,260l0.4-21.5l0.4,4.3l0.9,15.1
						l0.4-4.4l0.4-2.9l0.4,8.5l0.4-17.1l0.4-0.3l0.4,19.6l0.4-3.4l0.4,3.1l0.4-20.6l0.4,13.3l0.4-5.3l0.4-3.9l0.4,12.2l0.4-3.7
						l0.4-12.4l0.4,16l0.4-11.4l0.4-1.2l0.4,16l0.4-16.6l0.4,3.3l0.4-3.3l0.4,13.7l0.4-1.7l0.4-12.7l0.4-3l0.4,4.5l0.4-4.8l0.4,6.9
						l0.4,14l0.4-14.3l0.4,12.3l0.4-8.6l0.4,5.5l0.4-5.7l0.4,7.7l0.4,1.4l0.4-20.6l0.4,18.6l0.4-8.2l0.4-3.8l0.4,10l0.4-5.1
						l0.4-11.9l0.4,20.2l0.4-19.7l0.4,17.6L91,236l0.4,18.5l0.4-14.2l0.4,8.4l0.4-17.9L93,239l0.4-9.7l0.4,11l0.4-13.6l0.4,7.7
						l0.4-20.9l0.4,8.5l0.4-4.4l0.4-2.9l0.4-9l0.4-14.6l0.4,3.8l0.9,4.7l0.4,8.6l0.4-17.5l0.4,9.4l0.4,5.6l0.4-13.5l0.4,9.4l0.4-9.3
						l0.4,8.3l0.4-2.4l0.4,6.9l0.4-9.1l0.9,9.7l0.4-13.2l0.4,15.2l0.4-15.3l0.4,7.5l0.4-9.3l0.4-4.6l0.4-2l0.4-5l0.4,9.8l0.4-4.4
						l0.4-9.6l0.4,12.3l0.4,6.7l0.9-11.5l0.4-0.9l0.4,2.3l0.4,8l0.4,2.9l0.4,1.5l0.4-10.4l0.4,18l0.4-18.9l0.4,2.1l0.4,4.1l0.4-2.8
						l0.4,2.5l0.4,16.6l0.4-6.5l0.4,7.1l0.4-0.1l0.4-5l0.4,12.1l0.4-18.2l0.4-0.6l0.4,20.9l0.9-6.1l0.4,10.8l0.4,4.8l0.4-8l0.4-2.3
						l0.4,19.2l0.9-12.8l0.4-3.5l0.4-1.1l0.4,7l0.4,1.7l0.4,5.1l0.4-8.1l0.4,14.1l0.4-3.2l0.4-9.2l0.4-3.3l0.4,12.4l0.4-9.2
						l0.4,14.7l0.4-1.1l0.4-1.6l0.4,2.4l0.4-1.6l0.4-6l0.4-13.5l0.4,4.4l0.4-15.1l0.4,12.9l0.4-7.8l0.4,2.3l0.4-6.6l0.4-8.8l0.4-2.2
						l0.4-1.6l0.4-10.8l0.4,12l0.4-8.4l0.4,0.7l0.4-18.3l0.4,9.2l0.4-3.7l0.4-15l0.4,12l0.4-3.4l0.4-7.5l0.4-2l0.4-17.5l0.4,8.2
						l0.4-2.8l0.4,1.2l0.4,5.1l0.4-14.8l0.4-1.1l0.4-5.2l0.4-7.6l0.4-2.7l0.4,4.9l0.4,22.8l0.4-1.1l0.4-7.5l0.4,3.8l0.4,12.9h0.4
						l0.4-3.9l0.4-8.5l0.4-3.3l0.4,2.5l0.4,12.3l0.4-3.3l0.4,2.3l0.4,16.8l0.4-6.3l0.4-0.6l0.4,13.3l0.4-22.6l0.4,1.5l0.4-0.5
						l0.9-4.3l0.4-4.9l0.4-0.4l0.4,5.5l0.4,9.8l0.4-3.6l0.4,3l0.4,2.1l0.4-3.5l0.4,1.6l0.4-11.2l0.4,12.1l0.4-4.3l0.4,2.1l0.4,9.4
						l0.4-4.2l0.4-2.6l0.4,5.3l0.4-0.9l0.4,6.9l0.4-3.6l0.4-1.4l0.4-16.5l0.4-28.4l0.4-17.6l0.4-11.6l0.4-33.9L162,52l0.4,1.3
						l0.4-29l0.4,5.6l0.4-10.2l0.4,25.8l0.4-10.3l0.4,12.9l0.4-2.3l0.9,29.3l0.4,0.5l0.4,26.8l0.4-10.5l0.4,17.4l0.4-3.3l0.4,13.2
						l0.4-4.5l0.4,21l0.4,4.2l0.4-1.4l0.4,2.3l0.4,3.1l0.4,11.6l0.4,3.6l0.4,1l0.4-1.1l0.4,15.1l0.4-2.7l0.4-6.7l0.4-11.6l0.4,16.8
						l0.4-11.7l0.4-0.5l0.4-2.7l0.4,1.9l0.9-21.5l0.4,11.5l0.4-6.5l0.4-14.7l0.9,9.5l0.4,16.1l0.4-6.1l0.9,31.3l0.4-2.6l0.4,6.1
						l0.4,13l0.9,7.9l0.4,2.9l0.4-9.9l0.4-4.6l0.4,0.7l0.4,6l0.4-2.8l0.4-8.4l0.4-19.2l0.4,13.3l0.4-5.4l0.4,5l0.4-2.9l0.4-4.6
						l0.4,12l0.4,4.8l0.4-1.5l0.4-9.5l0.4,6.3l0.4-7.9l0.4,8.2l0.4,5.5l0.4,1.9l0.4-3.2l0.4,3.5l1.3-11.7l0.4,7.5l0.4,1.6l0.4-0.8
						l0.4-8.3l0.9,14.8l0.4-8.7l0.4,4.2l0.4,18.3l0.4-2.7l0.4,5.3l0.4,9.3l0.4-0.6l0.4,9.1l0.4-9.8l0.4,10.3l0.4-13.5l0.4,3l0.4,0.8
						l0.4-14.5l0.4-1.9l0.4-10.2l0.4,1.8l0.4,0.4l0.4-10.1l0.4,0.1l0.4,1.9l0.4-4.5l0.4-12.7l0.4,20.4l0.4-11.9l0.4,1.2l0.4,16.1
						l0.4-0.2l0.4-3.6l0.4,4l0.4,15.6l0.4,6.8l0.4,4.6l0.4,7.4l0.4-14.4l0.4,21.8l0.4-5.4l0.4-2.7l0.4,3.2l0.4,0.7l0.4-11.6
						l0.4,17.5l0.4-3.5l0.9-12l0.4,4.3l0.4,9.4l0.9-15.4l0.4-1.7l0.4-19.1l0.4-2.7l0.4-14.4l0.4-4.1l0.9,8.8l0.4,1.4l0.4-3l0.4-0.1
						l0.4-1.1l0.4,21.8l0.4,8.4l0.4-8.2l0.4,14.2l0.4-3l0.4,4.1l0.4,0.2l0.4,9.8l0.4-6.8l0.4,2.8l0.4,6.2l0.4,11.2l0.4,2.6l0.4-4.7
						l0.4-13.6l0.4,8l0.4,2.8l0.4-11.6l0.4,8.8l0.4-12l0.4-5.5l0.4,4.7l0.4-2.8l0.4-12l0.4,6l0.4,0.2l0.4-17.4l0.4-5.8l0.4,6.5
						l0.4-6.8l0.4,13.5l0.4-1.2l0.4-8.5l0.4,15.2l0.4-6.2l0.9,22.4l0.4,1.1l0.4-1.2l0.4,1l0.9-2.7l0.9,15.4l0.4-5.7l0.4-8.8l0.4,8.4
						l0.9,6.3l0.4-10.5l0.4-4.4l0.4,5.3l0.4-17.5l0.4,11.2l0.4-20.3l0.4,3.4l0.4-2.4l0.4-6.9l0.4,6.4l0.9-13.3l0.4,6.4l0.4,3
						l0.4-1.5l0.4,2l0.4-2.9l0.4-6.9l0.4,4.8l0.9,6.1l0.4-8l0.4,3.5l0.4,9.3l0.9,3.5l0.4,13.9l0.4-3.6l0.9-9.9l0.4,17.4l0.4-5.7
						l0.4,0.8l0.4,0.4l0.4-2.6l0.4,6.2l0.4-16.4l0.9-6.6l0.4,1.3l0.4,15.9l0.4-8.7l0.4-1.7l0.4,8.5l0.4-11.8l0.4-0.4l0.4,1.3
						l0.4,7.1l0.4-5.9l0.4-0.3l0.4-6.5l0.4,9.5l0.4-1l0.4,2.1l0.4,13.6l0.4-9.3l0.4-3.5l0.4,16.9l0.4-0.5l0.4-15.3l0.4-0.3l0.4,7.5
						l0.4-3.4l0.4,5.8l0.4,8.1l0.4-7.2l0.4,10l0.4-7.8l0.4,5.8l0.4,1.4l0.4-1.9l0.4,11.5l0.4,2.3l0.4-6.8l0.4-14.9l0.4,11.5l0.4,0.3
						l0.4-12.6l0.9,11.8l0.4-4.7l0.4-1.8l0.4-14.9l0.4-3.6l0.4-1.4l0.4,1.6l0.4,7.1l0.4-4.4l0.4-12.1l0.4,19.7l0.4-17.9l0.4,0.1
						l0.4,5.7l0.4,9.5l0.4-16.2l0.4-0.8l0.4-4.9l0.9,6l0.4-3.5l0.4,4.7l0.4,1.1l0.4-3.9l0.4-14.5l0.4,14.3l0.4-6.3l0.4-0.4l0.4-7.8
						l0.4,4.6l0.4,1l0.4,14.7l0.4,0.1l0.4-3.3l0.4,12l0.4-6.6l0.4-0.1l0.4-2l0.4,10.5l0.4-0.9l0.4-12.9l0.4,12.4l0.4-8.3l0.9,11.8
						l0.4,0.8l0.4-10.2l0.4,1.4l0.4-6.3l0.4,1l0.4,10.4l0.4-14.8l0.4-2.1l0.4-6.1l0.4-0.8l0.4,19.1l0.4-13.3l0.4,2.5l0.4-3l0.4,8.1
						l0.4,0.2l0.4,14.4l0.4-16.8l0.4,19.7l0.4-16l0.4,3.4l0.4-7.4l0.4-3.9l0.4,15.4l0.4-6.8l0.4,12.9l0.4,0.5l0.4-2.3l0.4-9.5
						l0.4,9.7l0.4-6.6l0.4-2l0.4,0.1l0.4-3.6l0.4-9.6l0.4-6.6l0.4-9.9l0.4-5.7l1.3-31.8l0.4,5.9l0.4,8.7l0.4,2.8l0.4,14l0.4-12.9
						l0.4,24.2l0.4-11.2l0.4,11.1l0.4,2.8l0.4,14l0.4-10.2l0.4,12l0.4-8.3l0.4,16.4l0.4-11.3l0.4,8.8l0.4-13.3l0.4,10.2l0.9-11.3
						l0.4,0.5l0.4,0.9l0.4,7.9l0.4,2.8l0.4,14l0.4,0.4l0.4-19.8l0.4,19.5l0.4-11.2l0.4,4.2l0.9-23.9l0.4,3.1l0.4,5.8l0.4-0.5
						l0.4,7.7l0.4-3.4l0.4-11.9l0.4,13.8l0.4,9.3l0.4-1.3l0.4-4.7l0.4,4.2l0.4-3.8l0.4,12.2l0.4,6.2l0.4-5.5l0.4,5.4l0.4-2.8
						l0.4,5.5l0.4,2.2l0.4-6.2l0.4-9.1l0.9,11.9l0.4-19.8l0.4,16.5l0.4-6.4l0.4-15.8l0.4,7.7l0.4,0.3l0.4-1l0.4-2.8l0.4,3l0.4-2.2
						l0.4-5.8l0.4,13.9l0.4-10.7l0.4,4.5l0.4,11.8l0.4,1.3l0.4,11.7l0.4-7.7l0.4,1.3l0.4,4.8l0.4-5.3l0.4-8.5l0.4-4.3l0.4,6.9l0.4,1
						l0.4-11l0.4,7l0.4,1.1l0.4,7.8l0.9,0.8l0.4-11.2l0.4,6.5l0.4,12.4l0.9-10.5l0.4,1.4l0.4,12.4l0.4,0.6l0.4-18.8l0.4,7.6l0.4-6
						l0.4,6.1l0.4-4.3l0.4-0.8l0.4-12l0.4,12l0.4-10l0.4-2.3l0.4,1.6l0.4-0.9l0.4,1.9l0.4-6.8l0.4,19.2l0.4-9.8l0.4-1.6l0.4,15.2
						l0.4,5.6l0.4-6.5l0.9,13.4l0.9-7.6l0.4,10l0.4-15.3l0.4,5.2l0.4,0.8l0.9,13.2l0.4-9.7l0.4-2.3l0.4-3.8l0.4-1.6l0.4-6l0.4,13.2
						l0.4-16.8l0.4-3.6l0.4,1.3l0.4,10.7l0.4-11.2l0.4-1.2l0.4-13l0.4,18.2l0.4-16.6l0.4,3.7l0.4,18.6l0.4-6.8l0.4,13.3l0.4-15.3
						l0.4,15.4l0.4-7l0.4,13.5l0.4,4.1l0.4-2.7l0.4,5.8l0.4-7.4l0.4-2.1l0.4-0.2l0.4,8.4l0.4-10.7l0.4,7.9h0.4l0.4,3.7l0.4-15.7
						l0.4,3l0.4,13.8l0.4-21.2l0.4,1l0.4-1l0.4,12.9l0.4-1.5l0.4-16.3l0.4,4.3l0.4,6.2l0.4-2.5l0.4-10.7l0.4,11.3l0.4-12.5l0.4,2.4
						l0.4-1.2l0.4,17.4l0.4-2.1l0.4-13.9l0.4,3.8l0.4,5.8l0.4,1.5l0.4-1.2l0.4,8.4l0.4-6.9l0.9,14.9l0.4-13.3l0.4,14.4l0.4-9.6
						l0.4,6.2l0.4-12.1l0.4,0.1l0.4-1.9l0.4,7.9l0.4-7.5l0.4,15.4l0.9-0.3l0.4,2.6l0.4-3.9l0.4-9.3l0.4,9.9l0.4-13.8l0.4-6.5
						l0.4,11.4l0.4-10.5l0.4,6.3l0.4,0.1l0.4-6.4l0.4,3.4l0.4-2.8l0.4,10l0.4-4.3l0.4-10.3l0.4,0.9l0.4-0.6l0.4,10.8l0.4-4.7
						l0.4,3.5l0.4,12.5l0.4-10.2l0.4-1.2l0.4,2.6l0.4,4.6l0.4-3.1l0.4,6.8l0.4-1.4l0.4,1.4l0.4-11.9l0.4,10.3l0.4-13.7l0.4,7.4
						l0.4,4.6l0.4-12.2l0.4,9l0.4-15.7l0.4,14.5l0.4-5.1l0.4-13.6l0.4-0.1l0.4,16.7l0.4-15.9l0.4,5l0.4-3.3l0.4,13.5l0.4,1.6
						l0.4-5.1l0.4-9.2h0.4l0.4,7.6l0.4,10l0.4-4.8l0.4,1.1l0.4,5.8l0.4-3.2l0.4-2l0.4-0.4l0.4-5.4l0.4-8.4l0.4,19.2l0.4,2.4l0.4-5.5
						l0.4-12.4l0.4-0.6l0.4,17.3l0.4-6.1l0.4-1l0.4-2.5l0.4-7.5l0.4,1.9l0.4,17l0.4-6.8l0.4-0.4l0.4-10l0.4,13l0.4-6l0.4,4l0.4-13.2
						h0.4l0.4,8.6l0.4,3.2l0.4-13.4l0.4,13.2l0.4-6.2l0.4,3.7l0.4,10.1l0.4-14.7l0.4,13.2l0.4,5l0.4-14.7l0.4,7.8l0.4-7.5l0.4-2.1
						l0.4,7.7l0.4-4.8l0.4-1.2l0.4,7.2l0.4-4.3l0.4-3l0.4,10.5l0.4-8.2l0.4-10.7l0.4,2.8l0.4,4.4l0.4-8.2l0.4,0.8l0.4,11.4l0.4,4.4
						l0.4-13.6l0.4,7l0.4,4.7l0.4-7.9l0.4,10.1l0.9-11.9l0.4,5.4l0.4-11.4l0.4,17.9l0.4,1.3l0.4-4.4l0.4-14.4l0.4,1.7l0.4,5.2
						l0.4-13.5l0,0"/>
				</g>
			</g>
		</g>
		<g id="line2d_2">
			<g>
				<g>
					<defs>
						<rect id="SVGID_00000005981799528428507550000003086622356327034017_" x="7.2" y="7.2" width="482.4" height="266.4"/>
					</defs>
					<clipPath id="SVGID_00000147195183260254205410000002619199143366787499_">
						<use xlink:href="#SVGID_00000005981799528428507550000003086622356327034017_"  style="overflow:visible;"/>
					</clipPath>
					
						<path style="clip-path:url(#SVGID_00000147195183260254205410000002619199143366787499_);fill:none;stroke:#B70000;stroke-width:8;stroke-linecap:square;stroke-linejoin:round;" d="
						M29.1,251.7l1.8-0.2l2.2-0.3l1.3,0.1l2.6,0.3h2.2l1.8-0.2l3.1-0.6l1.3,0.2l2.2,0.5l1.8,0.1l1.8-0.1l1.3-0.3l1.8-0.7l0.9-0.3
						h0.9l0.9,0.2l2,0.6l1.3,0.2h1.8l1.8-0.2l1.3-0.4l2.2-1l0.9-0.1l0.9,0.2l2.2,0.9l1.3,0.2h1.8l1.8-0.2l1.3-0.4l1.3-0.7l1.3-0.8
						l0.9-0.2l0.9,0.2l2.2,0.7h0.9l1.3-0.2l1.3-0.4l1.3-0.7l0.9-0.7l0.9-1l0.9-1.5l0.9-2.3l0.9-3.4l0.9-5.1l0.9-7.4l2.2-22.7l0.4-3
						l0.4-2.1l0.4-1.1l0.4-0.4l0.4,0.2l0.4,0.5l1.8,2.6l0.4,0.3l0.9,0.2h0.9l0.4-0.2l0.4-0.5l0.4-1l0.4-1.5l2.2-10l0.9-2.2l0.9-1.6
						l0.4-0.5l0.4-0.1l0.4,0.5l0.4,1.2l0.9,4l0.9,3.7l0.4,0.9l0.4,0.2l0.9-0.4l0.4,0.3l0.4,1.1l0.4,1.9l1.3,7.6l0.4,1.6l0.4,0.6
						l0.4-0.1l0.4-0.4l0.4-0.2l0.4,0.5l0.4,1.5l0.4,2.6l2.2,16.1l0.4,1.4l0.4,0.5l0.4-0.3l1.8-2.8l0.4,0.3l0.4,0.9l0.9,3.1l0.9,3.2
						l0.4,1.1l0.4,0.5l0.4-0.1l0.4-0.7l0.4-1.3l0.9-4.1l2.6-15.5l0.9-6.6l1.8-16.2l0.4-2.8l0.9-3.5l0.4-1.7l0.4-2.5l0.4-3.6
						l1.8-18.9l0.4-2.7l0.4-1.3l0.9-1.3l0.4-1.7l0.4-3l1.3-12.3l0.4-1.6l0.4,1l0.4,3.5l1.3,15.6l0.4,3l0.4,0.9l0.4-0.7l0.9-2.6
						l0.4,0.1l0.4,1.8l0.4,3.4l1.3,12.1l0.4,1.7l0.4-0.3l0.4-2.2l1.8-14l0.4-1.1l0.4,0.3l1.3,3.6l0.4,0.5l0.4-0.2l0.4-0.7l0.9-1.9
						l0.4-0.5l0.4,0.4l0.4,1.6l0.4,3l1.8,16.9l0.4,1.3l0.4-1.5l0.4-5l0.4-8.9l0.4-12.8l0.9-36l1.3-59.4l0.4-14.1l0.4-9l0.4-3.7
						L170,30l0.4,4.2l0.9,13.9l1.3,25.4l1.3,26l0.9,12.6l1.8,17.9l0.9,12.8l0.9,13.2l0.4,5.1l0.4,3.6l0.4,1.8l0.4,0.3l0.4-1l0.9-4.2
						l2.2-12.3l1.8-13.5l0.4-1.6l0.4,0.4l0.4,2.8l0.4,5.2l0.9,15.9l1.3,26.4l0.4,6.5l0.4,4.7l0.4,2.7l0.4,0.7l0.4-1.1l0.4-2.6
						l0.9-8.3l1.3-14.2l0.4-2.9l0.4-1.1l0.4,0.9l0.4,2.7l1.3,11.3l0.4,2.2l0.4,0.8l0.4-0.6l1.3-3.9l0.4-0.3l0.4,0.5l0.9,2.4l0.9,2.2
						l0.4,0.6l0.4,0.2l0.9-0.1l0.4,0.3l0.4,1.1l0.4,2.1l0.4,3.3l0.9,9.2l0.9,9.8l0.4,3.9l0.4,2.8l0.4,1.5l0.4,0.2l0.4-1.1l0.4-2.3
						l0.4-3.3l0.9-9.1l1.8-19.7l0.4-3.3l0.4-2.2l0.4-1.1l0.4-0.1l0.4,0.8l0.4,1.5l0.4,2.3l0.4,3.2l0.9,9l1.8,21.6l0.9,6.9l0.4,2.1
						l0.4,1.4l0.4,0.9l0.4,0.6l0.9,0.6l0.4,0.1h0.4l0.4-0.2l0.4-0.6l0.4-1.1l0.4-1.9l0.4-2.9l0.4-4.1l0.9-11.9l1.3-21.3l0.4-4.7
						l0.4-2.2l0.4,0.7l0.4,3.4l0.9,12.1l1.3,19.6l0.9,9.3l0.9,6.1l0.9,3.8l0.9,2.2l0.9,1.2l0.4,0.3l0.4,0.1l0.4-0.1l0.4-0.4l0.4-0.8
						l0.4-1.4l0.4-2l0.4-2.8l0.9-7.8l1.8-19l0.4-3.2l0.4-1.8l0.4-0.3l0.4,1.3l0.4,2.7l0.9,8.3l1.3,13.9l0.9,6.6l0.4,2.2l0.4,1.5
						l0.4,1l0.4,0.5l0.4,0.1l0.4-0.3l0.4-0.6l0.4-0.9l0.4-1.2l0.4-1.5l0.9-4.3l0.9-6.5l0.9-8.6l1.3-13.5l0.4-3.4l0.4-2.4l0.4-1.2
						l0.4-0.1l0.4,0.8l3.1,9.5l0.9,4.6l1.3,8l0.9,3.8l0.4,1.3l0.4,0.9l0.4,0.5l0.4,0.1l0.4-0.4l0.4-0.8l1.8-4.5l0.9-1.2l0.4-0.5
						l0.4-0.7l0.4-1l1.3-4.2l0.4-0.8l0.4,0.1l0.4,1.1l0.4,1.9l1.8,9.5l0.4,1.4l0.4,0.9l0.9,0.8l0.4,0.4l0.4,0.6l0.4,0.9l0.9,2.4
						l1.3,3.9l1.8,4.2l0.9,1.8l0.4,0.6l0.4,0.3h0.4l0.4-0.5l0.4-1l0.4-1.6l0.4-2.2l0.9-6.1l1.3-10.7l0.4-2.7l0.4-1.7l0.4-0.6
						l0.4,0.4l0.9,2.6l0.4,1.3l0.4,0.7l0.4-0.2l0.4-1l0.9-3.8l0.9-4.1l0.9-3l1.8-4.2l0.4-0.8l0.4-0.4l0.4,0.3l0.4,1.3l0.4,2.2
						l1.8,12.3l0.4,1.6l0.4,0.5l0.4-0.6l0.4-1.4l0.9-3.4l0.4-1.2l0.4-0.5l0.4,0.2l0.4,0.8l1.3,3.1l0.4,0.4l0.4-0.2l0.4-0.9l0.9-3.2
						l0.9-3.1l0.4-0.6l0.4,0.3l0.4,1.2l0.9,4.1l0.9,4.1l0.4,1.2l0.4,0.5l0.4-0.3l0.4-0.9l0.9-2.2l0.4-0.6l0.4,0.1l0.4,0.8l1.3,4.1
						l0.4,0.7l0.4-0.3l0.4-1.6l0.4-3l0.4-4.6l0.9-13.7l1.8-32.9l0.4-5.2l0.4-2.7h0.4l0.4,2.6l0.4,4.6l2.6,35.2l0.9,6.9l0.4,2.1
						l0.4,1l0.4-0.1l0.4-1.1l1.3-4.6l0.4-0.3l0.4,0.9l0.4,1.9l1.8,10.3l0.4,1l0.4-0.1l0.4-1.3l0.4-2.2l1.8-10.8l0.4-1.2l0.4-0.1
						l0.4,1l0.4,2l0.9,5.8l0.9,6.1l0.9,4.3l0.4,1.2l0.4,0.8l1.3,1.8l1.3,2.3l0.4,0.3l0.4-0.2l0.4-0.8l0.9-2.6l0.9-2.8l0.9-2.1
						l1.3-2.3l0.4-0.5l0.4-0.1l0.4,0.5l0.4,1.2l0.4,2l2.2,12.5l0.4,1.3l0.4,0.5l0.4-0.2l0.4-0.9l0.9-2.9l0.9-2.8l0.4-0.8l0.4-0.3
						l0.4,0.3l0.4,0.8l0.9,2.8l1.3,4.8l0.4,1.2l0.4,0.8l0.4,0.3l0.4-0.2l0.4-0.7l0.4-1.1l0.9-3.1l0.9-3.2l0.9-2.4l0.9-1.4l0.9-0.8
						l0.4-0.1l0.4,0.3l0.4,0.9l0.4,1.4l0.9,4.3l1.3,7.2l0.9,3.6l0.9,2.3l0.9,1.3l0.4,0.4l0.4,0.2l0.4,0.1l0.4-0.1l0.4-0.3l0.4-0.6
						l0.4-0.9l0.4-1.3l0.4-1.8l0.9-5.1l1.8-12.4l0.4-1.8l0.4-0.6l0.4,0.6l0.4,1.7l0.9,5.7l1.3,9.3l0.9,4.4l0.9,2.8l0.9,1.6l0.9,0.8
						l0.9,0.3l0.9-0.1l0.9-0.5l0.9-1.1l0.9-1.8l0.9-2.6l0.9-3.6l1.3-5.7l0.4-1.3l0.4-0.8l0.4-0.1l0.4,0.6l0.4,1.2l0.9,3.6l1.3,6.1
						l0.9,2.9l0.4,1l0.4,0.7l0.4,0.4l0.9,0.4l3.1,0.4l0.9-0.1l0.4-0.2l0.4-0.4l0.4-0.6l0.9-1.8l1.3-3.4l0.4-0.8l0.4-0.5l0.4-0.2
						l0.4,0.1l2.6,1.5l0.4,0.4l0.9,1.5l1.8,3.5l0.4,0.5l0.4,0.4l0.4,0.2h0.4l0.4-0.1l0.4-0.3l0.4-0.4l0.4-0.6l0.9-1.9l0.9-2.7
						l2.2-7.4l0.9-1.8l0.4-0.5l0.4-0.1l0.4,0.2l0.4,0.6l0.9,1.9l1.3,3l0.4,0.7l0.4,0.4l0.4,0.2h0.9h0.4l0.4,0.1l0.4,0.3l0.4,0.5
						l2.2,3.3l0.4,0.2h0.4l0.9-0.3l0.9-0.3l0.9-0.1l1.3,0.4l0.9,0.1l0.4-0.1l0.9-0.6l0.9-0.8l0.4-0.2h0.4l0.4,0.3l0.9,1l0.9,1.1
						l0.4,0.4l0.4,0.2h0.9l0.9-0.2l0.9-0.4l0.9-0.8l2.2-2.6l0.4-0.3l0.4-0.1l0.4,0.1l0.9,0.6l0.9,0.6h0.4l0.4-0.2l0.9-0.7l0.9-0.8
						l1.3-0.9l0.4-0.5l0.9-1.8l0.9-2.2l0,0"/>
				</g>
			</g>
		</g>
	</g>
</g>
<g>
	<g>
		<path class="st3" d="M125.7,251c-4.1,0-13.4,0-17,0.3v-4.7h10.8v-59.2h-0.1l-27.9,61.5c-0.4,0.9-1.2,2.4-3.2,2.4
			c-1.1,0-2.3-0.5-3.2-2.5l-27.2-60.1h-0.1v55c0,2.2,0.1,2.3,3,2.6c1.8,0.2,3.5,0.3,5.3,0.3h2.5v4.7c-4.1-0.3-9.3-0.3-13.5-0.3
			c-3.9,0-9.6,0-13.4,0.3v-4.7h2.5c2.8,0,3,0,5.4-0.3c2.8-0.3,2.9-0.4,2.9-2.6v-56.3H41.7v-4.7h22.2c2.2,0,3.3,0,4.4,2.5l24,52.9
			l24-52.9c1.1-2.5,2.2-2.5,4.4-2.5h22.1v4.7H132v59.2h10.8v4.7C139.2,251,129.8,251,125.7,251z"/>
		<path class="st3" d="M190,252.4c-22.7,0-36.7-14.3-36.7-35c0-21,13.9-35.8,36.8-35.8c22.2,0,36.7,14.2,36.7,35.8
			C226.8,237.9,213,252.4,190,252.4z M207.3,195c-4-6.6-10.9-9.4-17.3-9.4c-5.9,0-12.6,2.5-16.7,8.6c-4.4,6.8-4.7,15.3-4.7,21.7
			c0,8.6,0.8,15.7,4.1,21.9c4.1,7.6,11.4,10.4,17.3,10.4c5.4,0,12.4-2.2,16.9-9.5c4.2-6.9,4.6-15.8,4.6-22.8
			C211.5,209.1,211.1,201.4,207.3,195z"/>
		<path class="st3" d="M276.4,252.4c-22.7,0-36.7-14.3-36.7-35c0-21,13.9-35.8,36.8-35.8c22.2,0,36.7,14.2,36.7,35.8
			C313.2,237.9,299.4,252.4,276.4,252.4z M293.7,195c-4-6.6-10.9-9.4-17.3-9.4c-5.9,0-12.6,2.5-16.7,8.6c-4.4,6.8-4.7,15.3-4.7,21.7
			c0,8.6,0.8,15.7,4.1,21.9c4.1,7.6,11.4,10.4,17.3,10.4c5.4,0,12.4-2.2,16.9-9.5c4.2-6.9,4.6-15.8,4.6-22.8
			C297.9,209.1,297.5,201.4,293.7,195z"/>
		<path class="st3" d="M354.4,252.4c-4.1,0-13.4-0.6-20-5.5l-4.6,4.6c-0.8,0.7-1,0.9-1.9,0.9c-1.8,0-1.8-0.9-1.8-2.8v-18.2
			c0-2.3,0-2.9,2.4-2.9c2.2,0,2.2,0.5,2.3,2.3c0.8,14.9,16,16.9,23.6,16.9c10.4,0,13-6.9,13-11.7c0-4.6-2.5-7.2-4-8.7
			c-2.2-2.1-3.9-2.4-12.7-4.3c-10.9-2.4-14.3-3.1-19.2-8c-2.1-2.2-5.4-6.8-5.4-13.3c0-10.5,7.2-20.1,22.4-20.1
			c4.8,0,11.3,0.9,17.1,5.5l4.5-4.4c1.1-1,1.2-1.1,2-1.1c1.8,0,1.8,0.9,1.8,2.8v18.3c0,2.3,0,2.8-2.4,2.8c-2.1,0-2.1-0.2-2.5-2.6
			c-2.3-13.6-12.4-17-20.4-17c-10,0-12.8,6.2-12.8,10.5c0,6.1,5.6,9.5,9.6,10.4l14.5,3.1c9.1,1.9,17.2,10,17.2,21.1
			C377.1,241.1,370.9,252.4,354.4,252.4z"/>
		<path class="st3" d="M451.3,251.3h-63.8v-4.7h10.8V188h-10.8v-4.7h62.1l3.1,24.1H448c-1.6-12.1-4.2-19.4-20.3-19.4h-15.2v25.7h5.5
			c9.7,0,10.6-4.3,10.6-11.7h4.7v28.1h-4.7c0-7.4-1-11.7-10.6-11.7h-5.5v28.2h15.2c18.5,0,21.3-8.9,23.5-22.7h4.7L451.3,251.3z"/>
	</g>
</g>
<g>
	<g>
		<path class="st4" d="M125.7,251c-4.1,0-13.4,0-17,0.3v-4.7h10.8v-59.2h-0.1l-27.9,61.5c-0.4,0.9-1.2,2.4-3.2,2.4
			c-1.1,0-2.3-0.5-3.2-2.5l-27.2-60.1h-0.1v55c0,2.2,0.1,2.3,3,2.6c1.8,0.2,3.5,0.3,5.3,0.3h2.5v4.7c-4.1-0.3-9.3-0.3-13.5-0.3
			c-3.9,0-9.6,0-13.4,0.3v-4.7h2.5c2.8,0,3,0,5.4-0.3c2.8-0.3,2.9-0.4,2.9-2.6v-56.3H41.7v-4.7h22.2c2.2,0,3.3,0,4.4,2.5l24,52.9
			l24-52.9c1.1-2.5,2.2-2.5,4.4-2.5h22.1v4.7H132v59.2h10.8v4.7C139.2,251,129.8,251,125.7,251z"/>
		<path class="st5" d="M190,252.4c-22.7,0-36.7-14.3-36.7-35c0-21,13.9-35.8,36.8-35.8c22.2,0,36.7,14.2,36.7,35.8
			C226.8,237.9,213,252.4,190,252.4z M207.3,195c-4-6.6-10.9-9.4-17.3-9.4c-5.9,0-12.6,2.5-16.7,8.6c-4.4,6.8-4.7,15.3-4.7,21.7
			c0,8.6,0.8,15.7,4.1,21.9c4.1,7.6,11.4,10.4,17.3,10.4c5.4,0,12.4-2.2,16.9-9.5c4.2-6.9,4.6-15.8,4.6-22.8
			C211.5,209.1,211.1,201.4,207.3,195z"/>
		<path class="st6" d="M276.4,252.4c-22.7,0-36.7-14.3-36.7-35c0-21,13.9-35.8,36.8-35.8c22.2,0,36.7,14.2,36.7,35.8
			C313.2,237.9,299.4,252.4,276.4,252.4z M293.7,195c-4-6.6-10.9-9.4-17.3-9.4c-5.9,0-12.6,2.5-16.7,8.6c-4.4,6.8-4.7,15.3-4.7,21.7
			c0,8.6,0.8,15.7,4.1,21.9c4.1,7.6,11.4,10.4,17.3,10.4c5.4,0,12.4-2.2,16.9-9.5c4.2-6.9,4.6-15.8,4.6-22.8
			C297.9,209.1,297.5,201.4,293.7,195z"/>
		<path class="st7" d="M354.4,252.4c-4.1,0-13.4-0.6-20-5.5l-4.6,4.6c-0.8,0.7-1,0.9-1.9,0.9c-1.8,0-1.8-0.9-1.8-2.8v-18.2
			c0-2.3,0-2.9,2.4-2.9c2.2,0,2.2,0.5,2.3,2.3c0.8,14.9,16,16.9,23.6,16.9c10.4,0,13-6.9,13-11.7c0-4.6-2.5-7.2-4-8.7
			c-2.2-2.1-3.9-2.4-12.7-4.3c-10.9-2.4-14.3-3.1-19.2-8c-2.1-2.2-5.4-6.8-5.4-13.3c0-10.5,7.2-20.1,22.4-20.1
			c4.8,0,11.3,0.9,17.1,5.5l4.5-4.4c1.1-1,1.2-1.1,2-1.1c1.8,0,1.8,0.9,1.8,2.8v18.3c0,2.3,0,2.8-2.4,2.8c-2.1,0-2.1-0.2-2.5-2.6
			c-2.3-13.6-12.4-17-20.4-17c-10,0-12.8,6.2-12.8,10.5c0,6.1,5.6,9.5,9.6,10.4l14.5,3.1c9.1,1.9,17.2,10,17.2,21.1
			C377.1,241.1,370.9,252.4,354.4,252.4z"/>
		<path class="st8" d="M451.3,251.3h-63.8v-4.7h10.8V188h-10.8v-4.7h62.1l3.1,24.1H448c-1.6-12.1-4.2-19.4-20.3-19.4h-15.2v25.7h5.5
			c9.7,0,10.6-4.3,10.6-11.7h4.7v28.1h-4.7c0-7.4-1-11.7-10.6-11.7h-5.5v28.2h15.2c18.5,0,21.3-8.9,23.5-22.7h4.7L451.3,251.3z"/>
	</g>
</g>
</svg>
